<svg width="70" height="70" viewBox="0 0 70 70" fill="none" xmlns="http://www.w3.org/2000/svg">
<g filter="url(#filter0_b_6_165)">
<rect width="70" height="70" rx="35" fill="#2971C4"/>
<rect x="0.5" y="0.5" width="69" height="69" rx="34.5" stroke="white" stroke-opacity="0.3"/>
</g>
<path d="M43.62 38.7957C43.252 39.1524 43.0829 39.6682 43.1668 40.174L44.43 47.1652C44.5366 47.7577 44.2865 48.3573 43.7906 48.6998C43.3046 49.055 42.6581 49.0977 42.128 48.8135L35.8346 45.5311C35.6158 45.4145 35.3728 45.352 35.1241 45.3449H34.7391C34.6055 45.3648 34.4748 45.4074 34.3554 45.4728L28.0606 48.7708C27.7494 48.9271 27.397 48.9826 27.0517 48.9271C26.2105 48.768 25.6492 47.9666 25.787 47.1211L27.0517 40.13C27.1355 39.6199 26.9664 39.1012 26.5984 38.7389L21.4673 33.7655C21.0382 33.3492 20.889 32.724 21.0851 32.1598C21.2755 31.5971 21.7615 31.1865 22.3483 31.0941L29.4105 30.0696C29.9476 30.0142 30.4194 29.6874 30.6609 29.2043L33.7728 22.8242C33.8467 22.6821 33.9419 22.5513 34.057 22.4405L34.1849 22.341C34.2517 22.2671 34.3284 22.206 34.4137 22.1563L34.5685 22.0995L34.8101 22H35.4083C35.9426 22.0554 36.4129 22.3751 36.6588 22.8526L39.8119 29.2043C40.0392 29.6689 40.4812 29.9915 40.9913 30.0696L48.0534 31.0941C48.6502 31.1794 49.149 31.5915 49.3465 32.1598C49.5326 32.7297 49.3721 33.3549 48.9344 33.7655L43.62 38.7957Z" fill="white"/>
<defs>
<filter id="filter0_b_6_165" x="-16" y="-16" width="102" height="102" filterUnits="userSpaceOnUse" color-interpolation-filters="sRGB">
<feFlood flood-opacity="0" result="BackgroundImageFix"/>
<feGaussianBlur in="BackgroundImageFix" stdDeviation="8"/>
<feComposite in2="SourceAlpha" operator="in" result="effect1_backgroundBlur_6_165"/>
<feBlend mode="normal" in="SourceGraphic" in2="effect1_backgroundBlur_6_165" result="shape"/>
</filter>
</defs>
</svg>
