<svg width="16" height="15" viewBox="0 0 16 15" fill="none" xmlns="http://www.w3.org/2000/svg">
<path d="M6.02634 9.88041C9.23697 9.88041 11.9474 10.4087 11.9474 12.449C11.9474 14.4893 9.21958 15 6.02634 15C2.81571 15 0.105286 14.4709 0.105286 12.4314C0.105286 10.3911 2.8323 9.88041 6.02634 9.88041ZM13.5255 3.94737C13.9173 3.94737 14.2352 4.27062 14.2352 4.66707V5.59568H15.185C15.576 5.59568 15.8948 5.91893 15.8948 6.31538C15.8948 6.71183 15.576 7.03508 15.185 7.03508H14.2352V7.96451C14.2352 8.36096 13.9173 8.68421 13.5255 8.68421C13.1346 8.68421 12.8158 8.36096 12.8158 7.96451V7.03508H11.8676C11.4759 7.03508 11.1579 6.71183 11.1579 6.31538C11.1579 5.91893 11.4759 5.59568 11.8676 5.59568H12.8158V4.66707C12.8158 4.27062 13.1346 3.94737 13.5255 3.94737ZM6.02634 0C8.201 0 9.94421 1.76576 9.94421 3.96856C9.94421 6.17136 8.201 7.93712 6.02634 7.93712C3.85168 7.93712 2.10847 6.17136 2.10847 3.96856C2.10847 1.76576 3.85168 0 6.02634 0Z" fill="white" fill-opacity="0.4"/>
</svg>
